<svg width="31" height="24" viewBox="0 0 31 24" fill="none" xmlns="http://www.w3.org/2000/svg">
<path d="M26.26 2.00996C24.2232 1.05745 22.0731 0.381713 19.8644 0C19.5622 0.551901 19.2887 1.11973 19.0452 1.70112C16.6925 1.33898 14.3 1.33898 11.9474 1.70112C11.7037 1.11979 11.4303 0.551968 11.1282 0C8.91809 0.384937 6.76653 1.06228 4.72775 2.01494C0.680249 8.132 -0.416965 14.0971 0.131642 19.9776C2.50196 21.7665 5.15502 23.127 7.9755 24C8.61059 23.1275 9.17256 22.2018 9.65545 21.2329C8.73827 20.883 7.85302 20.4512 7.00995 19.9427C7.23183 19.7783 7.44884 19.609 7.65853 19.4446C10.1116 20.623 12.7891 21.234 15.4999 21.234C18.2108 21.234 20.8882 20.623 23.3414 19.4446C23.5535 19.6214 23.7705 19.7908 23.9899 19.9427C23.1452 20.4521 22.2584 20.8846 21.3396 21.2354C21.8219 22.2039 22.3839 23.1287 23.0195 24C25.8424 23.1305 28.4975 21.7707 30.8682 19.9801C31.5119 13.1606 29.7686 7.25031 26.26 2.00996ZM10.3504 16.3611C8.82157 16.3611 7.55856 14.944 7.55856 13.2005C7.55856 11.457 8.77768 10.0274 10.3455 10.0274C11.9133 10.0274 13.1665 11.457 13.1397 13.2005C13.1129 14.944 11.9084 16.3611 10.3504 16.3611ZM20.6495 16.3611C19.1183 16.3611 17.8602 14.944 17.8602 13.2005C17.8602 11.457 19.0793 10.0274 20.6495 10.0274C22.2198 10.0274 23.4633 11.457 23.4365 13.2005C23.4096 14.944 22.2076 16.3611 20.6495 16.3611Z" fill="#E5E8EC"/>
</svg>
