<svg width="21" height="21" viewBox="0 0 21 21" fill="none" xmlns="http://www.w3.org/2000/svg">
<g clip-path="url(#clip0_577_712)">
<path d="M17.7188 3.28125C15.8156 1.37812 13.2562 0.328125 10.5 0.328125V4.92188C12.0094 4.92188 13.3875 5.5125 14.4375 6.5625C15.4875 7.6125 16.0781 9.05625 16.0781 10.5H20.6719C20.6719 7.80938 19.6219 5.18438 17.7188 3.28125Z" fill="#FDDD56"/>
<path d="M3.28125 3.28125C1.37812 5.18438 0.328125 7.74375 0.328125 10.5H4.92188C4.92188 8.99063 5.5125 7.6125 6.5625 6.5625C7.6125 5.5125 9.05625 4.92188 10.5 4.92188V0.328125C7.80938 0.328125 5.18438 1.37812 3.28125 3.28125Z" fill="#70CADB"/>
<path d="M6.5625 14.4375C5.5125 13.3875 4.92188 11.9438 4.92188 10.5H0.328125C0.328125 13.1906 1.37812 15.8156 3.28125 17.7188C5.18438 19.6219 7.74375 20.6719 10.5 20.6719V16.0781C8.99063 16.0781 7.6125 15.4875 6.5625 14.4375Z" fill="#B9D34C"/>
<path d="M16.0781 10.5C16.0781 12.0094 15.4875 13.3875 14.4375 14.4375C13.3875 15.4875 11.9438 16.0781 10.5 16.0781V20.6719C13.1906 20.6719 15.8156 19.6219 17.7188 17.7188C19.6219 15.8156 20.6719 13.2562 20.6719 10.5H16.0781Z" fill="#EE654B"/>
<path d="M10.5 0.328125V4.92188C8.99062 4.92188 7.6125 5.5125 6.5625 6.5625L3.28125 3.28125C5.18438 1.37812 7.80938 0.328125 10.5 0.328125Z" fill="#9E61A4"/>
<path d="M6.5625 6.5625C5.5125 7.6125 4.92188 9.05625 4.92188 10.5H0.328125C0.328125 7.80938 1.37812 5.18438 3.28125 3.28125L6.5625 6.5625Z" fill="#70CADB"/>
<path d="M6.5625 14.4375L3.28125 17.7188C1.37812 15.8156 0.328125 13.2562 0.328125 10.5H4.92188C4.92188 12.0094 5.5125 13.3875 6.5625 14.4375Z" fill="#55BB8C"/>
<path d="M10.5 16.0781V20.6719C7.80938 20.6719 5.18438 19.6219 3.28125 17.7188L6.49687 14.4375C7.6125 15.4875 8.99062 16.0781 10.5 16.0781Z" fill="#B9D34C"/>
<path d="M17.7188 17.7188C15.8156 19.6219 13.2562 20.6719 10.5 20.6719V16.0781C12.0094 16.0781 13.3875 15.4875 14.4375 14.4375L17.7188 17.7188Z" fill="#ED4569"/>
<path d="M20.6719 10.5C20.6719 13.1906 19.6219 15.8156 17.7188 17.7188L14.4375 14.4375C15.4875 13.3875 16.0781 11.9438 16.0781 10.5H20.6719Z" fill="#EE654B"/>
<path d="M20.6719 10.5H16.0781C16.0781 8.99062 15.4875 7.6125 14.4375 6.5625L17.7188 3.28125C19.6219 5.18438 20.6719 7.80938 20.6719 10.5Z" fill="#F8A839"/>
<path d="M17.7188 3.28125L14.4375 6.5625C13.3875 5.5125 11.9438 4.92188 10.5 4.92188V0.328125C13.1906 0.328125 15.8156 1.37812 17.7188 3.28125Z" fill="#FDDD56"/>
</g>
<defs>
<clipPath id="clip0_577_712">
<rect width="21" height="21" fill="white"/>
</clipPath>
</defs>
</svg>
