<svg width="21" height="30" viewBox="0 0 21 30" fill="none" xmlns="http://www.w3.org/2000/svg">
<path d="M18 0H3C1.35 0 0 1.35 0 3V27C0 28.65 1.35 29.985 3 29.985L18 30C19.65 30 21 28.65 21 27V3C21 1.35 19.65 0 18 0ZM10.5 3C12.15 3 13.5 4.35 13.5 6C13.5 7.65 12.15 9 10.5 9C8.835 9 7.5 7.65 7.5 6C7.5 4.35 8.835 3 10.5 3ZM10.5 27C6.36 27 3 23.64 3 19.5C3 15.36 6.36 12 10.5 12C14.64 12 18 15.36 18 19.5C18 23.64 14.64 27 10.5 27ZM10.5 15C8.01 15 6 17.01 6 19.5C6 21.99 8.01 24 10.5 24C12.99 24 15 21.99 15 19.5C15 17.01 12.99 15 10.5 15Z" fill="#626670"/>
</svg>
