<svg width="29" height="29" viewBox="0 0 29 29" fill="none" xmlns="http://www.w3.org/2000/svg">
<g clip-path="url(#clip0_577_665)">
<path d="M14.4878 2.41666C7.81775 2.41666 2.4165 7.83 2.4165 14.5C2.4165 21.17 7.81775 26.5833 14.4878 26.5833C21.1698 26.5833 26.5832 21.17 26.5832 14.5C26.5832 7.83 21.1698 2.41666 14.4878 2.41666ZM22.8615 9.66666H19.2969C18.9103 8.15625 18.3544 6.70625 17.6294 5.365C19.8528 6.12625 21.7015 7.67291 22.8615 9.66666ZM14.4998 4.88166C15.5028 6.33166 16.2882 7.93875 16.8078 9.66666H12.1919C12.7115 7.93875 13.4969 6.33166 14.4998 4.88166ZM5.14734 16.9167C4.954 16.1433 4.83317 15.3337 4.83317 14.5C4.83317 13.6662 4.954 12.8567 5.14734 12.0833H9.2315C9.13484 12.8808 9.06234 13.6783 9.06234 14.5C9.06234 15.3217 9.13484 16.1192 9.2315 16.9167H5.14734ZM6.13817 19.3333H9.70275C10.0894 20.8437 10.6453 22.2937 11.3703 23.635C9.14692 22.8737 7.29817 21.3392 6.13817 19.3333ZM9.70275 9.66666H6.13817C7.29817 7.66083 9.14692 6.12625 11.3703 5.365C10.6453 6.70625 10.0894 8.15625 9.70275 9.66666ZM14.4998 24.1183C13.4969 22.6683 12.7115 21.0612 12.1919 19.3333H16.8078C16.2882 21.0612 15.5028 22.6683 14.4998 24.1183ZM17.3273 16.9167H11.6723C11.5636 16.1192 11.479 15.3217 11.479 14.5C11.479 13.6783 11.5636 12.8687 11.6723 12.0833H17.3273C17.4361 12.8687 17.5207 13.6783 17.5207 14.5C17.5207 15.3217 17.4361 16.1192 17.3273 16.9167ZM17.6294 23.635C18.3544 22.2937 18.9103 20.8437 19.2969 19.3333H22.8615C21.7015 21.3271 19.8528 22.8737 17.6294 23.635ZM19.7682 16.9167C19.8648 16.1192 19.9373 15.3217 19.9373 14.5C19.9373 13.6783 19.8648 12.8808 19.7682 12.0833H23.8523C24.0457 12.8567 24.1665 13.6662 24.1665 14.5C24.1665 15.3337 24.0457 16.1433 23.8523 16.9167H19.7682Z" fill="#626670"/>
</g>
<defs>
<clipPath id="clip0_577_665">
<rect width="29" height="29" fill="white"/>
</clipPath>
</defs>
</svg>
