<svg width="29" height="29" viewBox="0 0 29 29" fill="none" xmlns="http://www.w3.org/2000/svg">
<g clip-path="url(#clip0_577_656)">
<path d="M19.9373 14.5C21.6048 14.5 22.9461 13.1467 22.9461 11.4792C22.9461 9.81167 21.6048 8.45833 19.9373 8.45833C18.2698 8.45833 16.9165 9.81167 16.9165 11.4792C16.9165 13.1467 18.2698 14.5 19.9373 14.5ZM10.8748 13.2917C12.8807 13.2917 14.4878 11.6725 14.4878 9.66667C14.4878 7.66083 12.8807 6.04167 10.8748 6.04167C8.869 6.04167 7.24984 7.66083 7.24984 9.66667C7.24984 11.6725 8.869 13.2917 10.8748 13.2917ZM19.9373 16.9167C17.7261 16.9167 13.2915 18.0283 13.2915 20.2396V22.9583H26.5832V20.2396C26.5832 18.0283 22.1486 16.9167 19.9373 16.9167ZM10.8748 15.7083C8.05942 15.7083 2.4165 17.1221 2.4165 19.9375V22.9583H10.8748V20.2396C10.8748 19.2125 11.2736 17.4121 13.7386 16.0467C12.6873 15.8292 11.6723 15.7083 10.8748 15.7083Z" fill="#626670"/>
</g>
<defs>
<clipPath id="clip0_577_656">
<rect width="29" height="29" fill="#626670"/>
</clipPath>
</defs>
</svg>
